<?xml version="1.0" standalone="no"?>
<!DOCTYPE svg PUBLIC "-//W3C//DTD SVG 20010904//EN"
 "http://www.w3.org/TR/2001/REC-SVG-20010904/DTD/svg10.dtd">
<svg version="1.0" xmlns="http://www.w3.org/2000/svg"
 width="212.000000pt" height="263.000000pt" viewBox="0 0 212.000000 263.000000"
 preserveAspectRatio="xMidYMid meet">
<metadata>
Created by potrace 1.10, written by Peter Selinger 2001-2011
</metadata>
<g transform="translate(0.000000,263.000000) scale(0.050000,-0.050000)"
fill="#000000" stroke="none">
<path d="M2330 4960 c-44 -21 -134 -62 -200 -91 -66 -29 -177 -79 -246 -111
-69 -32 -130 -58 -134 -58 -5 0 -68 -27 -140 -60 -72 -33 -135 -60 -140 -60
-7 0 -179 -77 -324 -145 -61 -29 -71 -68 -35 -137 30 -59 54 -73 269 -159 128
-51 255 -108 730 -329 400 -186 347 -186 740 8 444 220 591 285 628 278 57
-11 56 -299 -2 -377 -72 -98 -64 -226 19 -301 187 -166 414 96 248 286 -53 61
-59 82 -72 289 l-14 223 60 13 c125 28 120 183 -8 231 -28 11 -103 43 -165 72
-63 29 -186 84 -274 122 -88 39 -245 111 -350 161 -437 208 -448 211 -590 145z
m260 -220 c-8 -26 -2 -35 24 -33 20 2 34 -8 31 -22 -7 -33 11 -32 47 4 36 36
73 24 98 -33 11 -24 33 -47 48 -52 17 -6 22 0 14 13 -9 14 -1 23 18 23 18 0
27 -9 20 -20 -7 -11 1 -14 19 -8 17 7 31 2 31 -10 0 -12 -11 -22 -24 -22 -18
0 -18 -6 -1 -23 18 -18 37 -18 78 1 51 23 85 7 87 -40 0 -11 34 -17 105 -20
19 0 47 -18 62 -39 14 -21 33 -33 40 -26 7 8 13 2 13 -12 0 -20 7 -20 27 -3
31 25 86 -21 65 -55 -7 -10 2 -24 18 -30 65 -25 13 -69 -97 -83 -21 -3 -43
-13 -50 -23 -19 -27 -124 -69 -142 -57 -9 5 -22 -4 -29 -21 -6 -18 -20 -26
-31 -20 -11 7 -38 -6 -62 -30 -23 -23 -52 -38 -65 -33 -27 10 -134 -43 -164
-82 -12 -14 -66 -34 -120 -43 -55 -9 -77 -18 -50 -19 61 -4 20 -34 -66 -50
-54 -9 -76 16 -29 35 16 6 12 10 -8 11 -19 1 -37 -6 -40 -16 -4 -10 -43 -23
-87 -29 -44 -6 -69 -6 -55 0 46 19 -48 108 -125 118 -11 2 -33 4 -50 6 -27 3
-27 6 0 23 44 28 -50 27 -104 -2 -30 -16 -37 -16 -27 0 7 12 0 22 -18 22 -17
0 -31 15 -31 32 0 23 -12 29 -42 22 -29 -8 -38 -3 -31 16 7 18 1 24 -18 17
-16 -6 -29 -2 -29 9 0 11 11 25 25 31 17 6 15 10 -6 11 -17 1 -40 -7 -50 -17
-11 -11 -41 -14 -66 -8 -35 10 -40 17 -20 30 18 12 8 14 -26 6 -42 -10 -56 -4
-66 29 -8 23 -23 42 -34 42 -10 0 -14 8 -8 19 6 10 -13 21 -42 25 -58 6 -92
56 -39 56 18 0 32 9 32 20 0 11 22 20 49 20 31 0 53 14 61 40 7 22 21 35 32
29 10 -6 32 3 50 20 17 17 47 31 67 31 20 0 48 14 62 32 18 21 49 29 96 23 54
-6 71 0 78 29 5 20 27 36 47 36 21 0 38 8 38 19 0 40 159 68 184 32 10 -14 22
-13 37 2 17 17 13 26 -19 36 -23 8 -42 22 -42 32 0 27 27 24 92 -10 50 -26 59
-26 74 0 9 16 25 25 35 18 10 -6 34 -2 53 8 46 26 71 9 56 -37z"/>
<path d="M788 3871 c-35 -15 -86 -58 -115 -96 l-53 -69 0 -1037 0 -1037 57 89
c31 50 85 114 120 143 l63 53 0 861 c0 666 6 863 25 876 14 9 138 16 275 16
l250 0 -3 98 c-2 56 -15 105 -30 115 -45 28 -519 19 -589 -12z"/>
<path d="M1600 3635 c0 -469 -7 -465 790 -465 l620 0 -2 -130 c-2 -71 -4 -429
-5 -794 l-3 -664 -155 -6 c-126 -5 -154 -12 -148 -36 4 -16 12 -68 18 -115
l10 -85 187 0 c378 0 371 -26 364 1383 l-6 1114 -250 -120 c-137 -67 -315
-152 -395 -190 l-146 -69 -184 89 c-102 49 -266 126 -365 172 -99 45 -214 100
-255 121 l-75 38 0 -243z m310 -123 c21 -15 49 -24 62 -19 12 5 27 -9 33 -31
8 -30 23 -38 62 -31 28 5 56 0 63 -11 8 -13 25 -14 50 0 25 13 42 13 50 0 31
-49 -255 -70 -329 -24 -113 70 -128 90 -89 118 45 33 52 32 98 -2z m1151 -18
c33 -25 66 -94 46 -94 -7 0 -29 19 -50 43 -20 24 -42 38 -48 32 -6 -6 12 -35
40 -66 28 -30 51 -68 51 -83 0 -35 -69 -26 -72 9 -2 14 -4 34 -5 45 -2 11 -12
20 -23 20 -12 0 -15 -22 -8 -52 l13 -53 -57 37 c-115 74 -137 111 -58 96 30
-5 50 1 50 14 0 55 76 87 121 52z"/>
<path d="M1205 2899 c-56 -22 -61 -118 -8 -166 61 -55 1473 -50 1502 6 31 57
26 78 -28 132 l-49 49 -686 -1 c-377 -1 -706 -10 -731 -20z"/>
<path d="M1204 2369 c-69 -49 -25 -186 62 -190 134 -7 1384 6 1406 14 45 18
56 101 20 157 l-33 50 -705 0 c-606 0 -711 -4 -750 -31z"/>
<path d="M1229 1881 c-207 -32 -390 -167 -483 -357 l-56 -114 0 -572 c0 -617
3 -638 105 -638 40 0 337 220 405 300 76 90 145 108 479 122 365 16 448 36
612 148 392 268 368 821 -46 1064 l-95 56 -410 3 c-225 2 -456 -4 -511 -12z
m538 -175 c24 6 61 4 82 -5 22 -8 61 -3 90 12 45 23 53 22 75 -19 20 -36 25
-37 25 -9 1 38 81 51 81 14 0 -12 8 -16 18 -10 47 29 187 -151 176 -226 -9
-63 -8 -67 11 -28 40 84 69 33 56 -98 -1 -19 7 -39 18 -46 32 -20 25 -71 -10
-71 -23 0 -26 -9 -13 -33 21 -37 9 -107 -18 -107 -10 0 -18 11 -18 23 0 32
-27 3 -32 -34 -3 -17 5 -24 19 -16 13 7 -13 -20 -57 -60 -44 -40 -96 -73 -115
-73 -33 0 -45 -24 -36 -70 3 -11 -2 -14 -10 -6 -8 8 -31 6 -52 -5 -25 -14 -37
-14 -37 0 0 12 -13 21 -29 21 -17 0 -25 -12 -19 -27 7 -20 -9 -26 -66 -24 -42
2 -91 -4 -110 -13 -19 -9 -39 -8 -46 3 -7 12 -29 11 -60 -2 -34 -16 -72 -16
-130 -1 -68 17 -81 16 -72 -7 5 -15 -1 -24 -14 -19 -57 18 -241 27 -214 10 15
-9 35 -13 44 -7 9 5 16 0 16 -12 0 -30 -83 -54 -207 -59 -25 -1 -33 -12 -26
-32 19 -50 -6 -87 -51 -75 -27 7 -37 3 -29 -10 24 -40 -40 -70 -75 -34 -18 17
-32 25 -32 16 0 -8 -11 -4 -24 9 -14 14 -25 96 -27 206 -2 106 3 171 13 155
13 -20 17 -14 18 18 0 25 -9 45 -20 45 -11 0 -20 14 -20 30 0 17 9 30 20 30
11 0 20 10 20 21 0 12 -9 16 -20 9 -11 -7 -20 2 -20 19 0 17 11 32 25 32 14 1
7 10 -15 19 -34 15 -35 17 -5 19 40 1 47 33 10 48 -15 6 -8 15 19 24 50 15 74
62 42 81 -13 8 -17 5 -9 -7 7 -11 1 -25 -14 -31 -19 -7 -28 8 -29 48 -1 38 9
58 27 58 16 0 29 14 29 30 0 51 4 59 49 100 24 22 54 65 67 95 18 42 37 55 79
54 30 0 82 5 115 11 33 7 146 21 250 31 105 11 199 23 210 26 11 4 23 -6 27
-22 4 -18 23 -25 50 -19z m-846 -1191 c16 -14 26 -23 22 -21 -5 3 -25 -4 -46
-15 -30 -17 -37 -13 -37 20 0 47 20 52 61 16z"/>
</g>
</svg>
