<svg xmlns="http://www.w3.org/2000/svg" xmlns:xlink="http://www.w3.org/1999/xlink" version="1.1" width="1000" height="1000" viewBox="0 0 1000 1000" xml:space="preserve">
<desc>Created with Fabric.js 3.5.0</desc>
<defs>
</defs>
<rect x="0" y="0" width="100%" height="100%" fill="#ffffff"/>
<g transform="matrix(3.0246 0 0 3.008 500.0071 500.0054)" id="599210">
<g style="" vector-effect="non-scaling-stroke">
		<g transform="matrix(0.1333 0 0 -0.1333 22.022 -103.4215)">
<path style="stroke: none; stroke-width: 1; stroke-dasharray: none; stroke-linecap: butt; stroke-dashoffset: 0; stroke-linejoin: miter; stroke-miterlimit: 4; is-custom-font: none; font-file-url: none; fill: rgb(29,28,28); fill-rule: nonzero; opacity: 1;" transform=" translate(-1225.3355, -2090.5594)" d="M 1150 2472 c -73 -32 -116 -51 -208 -93 c -35 -16 -65 -29 -68 -29 c -2 0 -23 -9 -47 -19 c -23 -11 -71 -33 -107 -48 c -194 -86 -190 -84 -164 -134 c 15 -31 25 -36 154 -88 c 41 -16 122 -52 180 -79 c 268 -126 330 -152 358 -152 c 9 0 89 36 177 79 c 222 110 296 142 314 139 c 13 -3 17 -19 19 -80 c 2 -68 0 -82 -20 -109 c -32 -43 -31 -108 1 -143 c 90 -95 219 37 132 136 c -26 31 -29 41 -35 143 l -7 110 l 36 14 c 20 7 39 19 41 26 c 9 22 -25 75 -54 86 c -29 11 -40 16 -175 78 c -49 23 -91 41 -93 41 c -3 0 -53 23 -112 51 c -239 115 -226 112 -322 71 z m 120 3 c 17 -9 30 -13 30 -10 c 0 3 6 0 14 -7 c 11 -10 11 -17 3 -28 c -7 -9 -2 -7 10 3 c 16 14 23 15 29 6 c 5 -8 3 -10 -6 -4 c -9 5 -11 4 -6 -4 c 4 -6 11 -9 16 -6 c 5 3 20 0 32 -7 c 13 -7 28 -12 33 -13 c 6 0 10 -5 10 -12 c 0 -6 4 -15 9 -20 c 5 -5 6 -3 2 5 c -9 16 3 15 34 -3 c 23 -13 23 -14 5 -15 c -11 -1 -14 -4 -7 -7 c 7 -3 19 1 27 7 c 9 8 15 8 15 2 c 0 -6 17 -16 38 -23 c 20 -6 40 -16 43 -21 c 3 -5 16 -11 29 -13 c 13 -2 26 -8 29 -13 c 3 -5 14 -8 24 -6 c 13 2 17 -2 13 -12 c -3 -9 -1 -12 4 -9 c 14 9 101 -25 94 -36 c -3 -5 1 -7 8 -4 c 7 3 20 1 28 -5 c 13 -8 12 -11 -3 -22 c -17 -13 -17 -14 2 -14 c 11 0 18 4 15 7 c -8 13 11 17 21 5 c 20 -23 14 -48 -16 -58 c -36 -12 -42 -32 -40 -132 c 2 -118 5 -141 17 -139 c 6 1 22 -9 34 -22 c 13 -14 20 -25 16 -25 c -5 0 -2 -8 5 -17 c 12 -15 12 -16 -5 -10 c -16 6 -17 5 -7 -7 c 10 -12 10 -20 0 -38 c -7 -13 -10 -25 -8 -27 c 2 -2 -6 -5 -18 -6 c -15 -1 -20 2 -15 10 c 4 6 0 3 -9 -6 c -15 -17 -17 -16 -39 4 c -13 12 -18 14 -11 5 c 8 -11 9 -18 3 -18 c -12 0 -25 18 -28 38 c -1 6 3 12 9 12 c 8 0 9 3 1 8 c -21 14 -21 39 1 81 c 20 40 23 43 33 25 c 9 -16 11 -16 12 -3 c 0 9 -7 22 -15 29 c -15 13 -22 35 -7 27 c 4 -3 5 24 4 59 c -2 35 -7 64 -11 64 c -5 0 -21 12 -36 28 c -16 15 -25 21 -21 15 c 10 -18 -4 -39 -15 -22 c -7 12 -10 12 -21 0 c -11 -11 -11 -13 1 -6 c 10 5 12 4 7 -4 c -6 -10 -62 -38 -84 -41 c -4 -1 -13 -7 -21 -13 c -12 -10 -13 -9 -7 3 c 4 9 1 8 -7 -2 c -16 -20 -32 -25 -21 -6 c 4 6 3 8 -4 4 c -5 -3 -13 0 -16 6 c -3 7 -4 4 -1 -7 c 3 -16 -5 -25 -43 -42 c -26 -13 -51 -23 -55 -23 c -4 0 -15 -7 -24 -15 c -10 -8 -22 -15 -28 -16 c -10 0 -76 -38 -85 -49 c -3 -3 -12 -5 -20 -5 c -8 1 -21 -4 -29 -9 c -11 -8 -13 -8 -8 1 c 5 7 1 12 -10 11 c -26 -1 -64 17 -90 41 c -13 12 -23 17 -23 12 c 0 -7 -9 -7 -25 1 c -13 6 -22 15 -18 21 c 3 6 1 7 -6 3 c -6 -4 -18 -2 -26 4 c -8 7 -15 9 -15 5 c 0 -4 -6 -2 -13 4 c -8 6 -17 8 -20 4 c -4 -3 -7 -1 -7 5 c 0 7 -7 12 -16 12 c -9 0 -12 5 -8 12 c 4 6 3 8 -4 4 c -11 -7 -39 4 -91 35 c -18 11 -36 18 -39 15 c -2 -3 -17 3 -32 14 c -15 11 -30 17 -34 13 c -3 -3 -6 -1 -6 6 c 0 7 -6 11 -12 9 c -11 -4 -133 45 -147 58 c -2 2 2 12 10 21 c 13 16 12 17 -3 5 c -9 -8 -22 -11 -27 -8 c -13 8 2 51 18 52 c 6 1 14 3 19 4 c 4 1 10 2 15 1 c 4 0 7 4 7 11 c 0 6 6 3 14 -8 c 8 -10 18 -16 22 -11 c 4 4 2 7 -4 7 c -7 0 -4 8 6 18 c 19 19 52 36 65 34 c 4 -1 7 2 7 7 c 0 5 7 12 16 15 c 12 5 15 2 10 -9 c -4 -11 5 -7 27 9 c 28 22 114 64 135 66 c 4 1 27 13 51 27 c 24 14 40 19 36 12 c -5 -8 1 -6 12 4 c 12 11 27 15 38 11 c 13 -5 16 -4 11 4 c -5 8 0 12 13 12 c 10 0 21 4 23 8 c 2 5 16 12 31 16 c 21 5 27 4 21 -5 c -4 -8 -3 -9 5 -5 c 6 4 9 11 6 16 c -5 8 40 39 58 40 c 4 0 21 -7 37 -15 z" stroke-linecap="round"/>
</g>
		<g transform="matrix(0.1333 0 0 -0.1333 27.799 -149.495)">
<path style="stroke: none; stroke-width: 1; stroke-dasharray: none; stroke-linecap: butt; stroke-dashoffset: 0; stroke-linejoin: miter; stroke-miterlimit: 4; is-custom-font: none; font-file-url: none; fill: rgb(29,28,28); fill-rule: nonzero; opacity: 1;" transform=" translate(-1268.5, -2436.2102)" d="M 1255 2438 c -20 -7 -20 -8 0 -6 c 11 2 25 -1 31 -4 c 6 -4 11 -1 11 6 c 0 15 -15 16 -42 4 z" stroke-linecap="round"/>
</g>
		<g transform="matrix(0.1333 0 0 -0.1333 -10.0613 -139.3399)">
<path style="stroke: none; stroke-width: 1; stroke-dasharray: none; stroke-linecap: butt; stroke-dashoffset: 0; stroke-linejoin: miter; stroke-miterlimit: 4; is-custom-font: none; font-file-url: none; fill: rgb(29,28,28); fill-rule: nonzero; opacity: 1;" transform=" translate(-984.5456, -2360.0449)" d="M 992 2369 c 2 -7 -2 -13 -9 -14 c -6 0 -14 -3 -18 -7 c -4 -3 0 -5 9 -4 c 24 3 40 22 27 31 c -7 3 -10 1 -9 -6 z" stroke-linecap="round"/>
</g>
		<g transform="matrix(0.1333 0 0 -0.1333 -28.2911 -128.2535)">
<path style="stroke: none; stroke-width: 1; stroke-dasharray: none; stroke-linecap: butt; stroke-dashoffset: 0; stroke-linejoin: miter; stroke-miterlimit: 4; is-custom-font: none; font-file-url: none; fill: rgb(29,28,28); fill-rule: nonzero; opacity: 1;" transform=" translate(-847.8191, -2276.898)" d="M 840 2281 c 0 -6 4 -13 10 -16 c 6 -3 7 1 4 9 c -7 18 -14 21 -14 7 z" stroke-linecap="round"/>
</g>
		<g transform="matrix(0.1333 0 0 -0.1333 75.4196 -128.6003)">
<path style="stroke: none; stroke-width: 1; stroke-dasharray: none; stroke-linecap: butt; stroke-dashoffset: 0; stroke-linejoin: miter; stroke-miterlimit: 4; is-custom-font: none; font-file-url: none; fill: rgb(29,28,28); fill-rule: nonzero; opacity: 1;" transform=" translate(-1625.6508, -2279.5)" d="M 1620 2280 c -9 -6 -10 -10 -3 -10 c 6 0 15 5 18 10 c 8 12 4 12 -15 0 z" stroke-linecap="round"/>
</g>
		<g transform="matrix(0.1333 0 0 -0.1333 -32.934 -127.6414)">
<path style="stroke: none; stroke-width: 1; stroke-dasharray: none; stroke-linecap: butt; stroke-dashoffset: 0; stroke-linejoin: miter; stroke-miterlimit: 4; is-custom-font: none; font-file-url: none; fill: rgb(29,28,28); fill-rule: nonzero; opacity: 1;" transform=" translate(-812.998, -2272.3088)" d="M 800 2276 c 0 -2 7 -7 16 -10 c 8 -3 12 -2 9 4 c -6 10 -25 14 -25 6 z" stroke-linecap="round"/>
</g>
		<g transform="matrix(0.1333 0 0 -0.1333 -49.2372 -121.1363)">
<path style="stroke: none; stroke-width: 1; stroke-dasharray: none; stroke-linecap: butt; stroke-dashoffset: 0; stroke-linejoin: miter; stroke-miterlimit: 4; is-custom-font: none; font-file-url: none; fill: rgb(29,28,28); fill-rule: nonzero; opacity: 1;" transform=" translate(-690.7229, -2223.5193)" d="M 686 2223 c -6 -14 -5 -15 5 -6 c 7 7 10 15 7 18 c -3 3 -9 -2 -12 -12 z" stroke-linecap="round"/>
</g>
		<g transform="matrix(0.1333 0 0 -0.1333 -57.7035 -116.6878)">
<path style="stroke: none; stroke-width: 1; stroke-dasharray: none; stroke-linecap: butt; stroke-dashoffset: 0; stroke-linejoin: miter; stroke-miterlimit: 4; is-custom-font: none; font-file-url: none; fill: rgb(29,28,28); fill-rule: nonzero; opacity: 1;" transform=" translate(-627.227, -2190.1563)" d="M 616 2188 c 3 -5 10 -6 15 -3 c 13 9 11 12 -6 12 c -8 0 -12 -4 -9 -9 z" stroke-linecap="round"/>
</g>
		<g transform="matrix(0.1333 0 0 -0.1333 -40.2397 -103.3337)">
<path style="stroke: none; stroke-width: 1; stroke-dasharray: none; stroke-linecap: butt; stroke-dashoffset: 0; stroke-linejoin: miter; stroke-miterlimit: 4; is-custom-font: none; font-file-url: none; fill: rgb(29,28,28); fill-rule: nonzero; opacity: 1;" transform=" translate(-758.2048, -2090)" d="M 750 2090 c 0 -5 5 -10 11 -10 c 5 0 7 5 4 10 c -3 6 -8 10 -11 10 c -2 0 -4 -4 -4 -10 z" stroke-linecap="round"/>
</g>
		<g transform="matrix(0.1333 0 0 -0.1333 -35.6007 -99.6414)">
<path style="stroke: none; stroke-width: 1; stroke-dasharray: none; stroke-linecap: butt; stroke-dashoffset: 0; stroke-linejoin: miter; stroke-miterlimit: 4; is-custom-font: none; font-file-url: none; fill: rgb(29,28,28); fill-rule: nonzero; opacity: 1;" transform=" translate(-792.998, -2062.3088)" d="M 780 2066 c 0 -2 7 -7 16 -10 c 8 -3 12 -2 9 4 c -6 10 -25 14 -25 6 z" stroke-linecap="round"/>
</g>
		<g transform="matrix(0.1333 0 0 -0.1333 -8.5681 -90.6493)">
<path style="stroke: none; stroke-width: 1; stroke-dasharray: none; stroke-linecap: butt; stroke-dashoffset: 0; stroke-linejoin: miter; stroke-miterlimit: 4; is-custom-font: none; font-file-url: none; fill: rgb(29,28,28); fill-rule: nonzero; opacity: 1;" transform=" translate(-995.745, -1994.867)" d="M 986 1999 c 2 -4 -2 -9 -8 -12 c -7 -2 -1 -4 13 -3 c 28 1 36 22 8 22 c -10 0 -16 -3 -13 -7 z" stroke-linecap="round"/>
</g>
		<g transform="matrix(0.1333 0 0 -0.1333 4.7529 -81.9337)">
<path style="stroke: none; stroke-width: 1; stroke-dasharray: none; stroke-linecap: butt; stroke-dashoffset: 0; stroke-linejoin: miter; stroke-miterlimit: 4; is-custom-font: none; font-file-url: none; fill: rgb(29,28,28); fill-rule: nonzero; opacity: 1;" transform=" translate(-1095.6508, -1929.5)" d="M 1090 1930 c -9 -6 -10 -10 -3 -10 c 6 0 15 5 18 10 c 8 12 4 12 -15 0 z" stroke-linecap="round"/>
</g>
		<g transform="matrix(0.1333 0 0 -0.1333 41.0543 -81.1987)">
<path style="stroke: none; stroke-width: 1; stroke-dasharray: none; stroke-linecap: butt; stroke-dashoffset: 0; stroke-linejoin: miter; stroke-miterlimit: 4; is-custom-font: none; font-file-url: none; fill: rgb(29,28,28); fill-rule: nonzero; opacity: 1;" transform=" translate(-1367.914, -1923.9869)" d="M 1354 1923 c -18 -13 -17 -13 4 -10 c 12 2 27 8 32 13 c 16 16 -14 13 -36 -3 z" stroke-linecap="round"/>
</g>
		<g transform="matrix(0.1333 0 0 -0.1333 11.3364 -78.6537)">
<path style="stroke: none; stroke-width: 1; stroke-dasharray: none; stroke-linecap: butt; stroke-dashoffset: 0; stroke-linejoin: miter; stroke-miterlimit: 4; is-custom-font: none; font-file-url: none; fill: rgb(29,28,28); fill-rule: nonzero; opacity: 1;" transform=" translate(-1145.0268, -1904.8984)" d="M 1130 1916 c 0 -2 8 -10 18 -17 c 15 -13 16 -12 3 4 c -13 16 -21 21 -21 13 z" stroke-linecap="round"/>
</g>
		<g transform="matrix(0.1333 0 0 -0.1333 102.5719 -67.1984)">
<path style="stroke: none; stroke-width: 1; stroke-dasharray: none; stroke-linecap: butt; stroke-dashoffset: 0; stroke-linejoin: miter; stroke-miterlimit: 4; is-custom-font: none; font-file-url: none; fill: rgb(29,28,28); fill-rule: nonzero; opacity: 1;" transform=" translate(-1829.2919, -1818.9837)" d="M 1826 1825 c -9 -26 -7 -32 5 -12 c 6 10 9 21 6 23 c -2 3 -7 -2 -11 -11 z" stroke-linecap="round"/>
</g>
		<g transform="matrix(0.1333 0 0 -0.1333 -73.6733 -10.4839)">
<path style="stroke: none; stroke-width: 1; stroke-dasharray: none; stroke-linecap: butt; stroke-dashoffset: 0; stroke-linejoin: miter; stroke-miterlimit: 4; is-custom-font: none; font-file-url: none; fill: rgb(29,28,28); fill-rule: nonzero; opacity: 1;" transform=" translate(-507.5, -1393.4901)" d="M 390 1933 c -19 -10 -45 -33 -57 -52 l -23 -34 l 0 -516 c 1 -512 1 -516 20 -480 c 10 19 37 52 59 72 l 41 37 l 0 429 c 0 333 3 432 13 438 c 6 4 68 8 137 8 l 125 0 l -2 48 c -1 27 -4 52 -8 55 c -4 4 -66 8 -138 10 c -111 3 -137 0 -167 -15 z m 190 -13 l 98 0 l 6 -32 c 7 -35 0 -50 -14 -28 c -6 10 -10 11 -10 3 c 0 -9 -23 -11 -92 -7 c -51 3 -99 7 -106 9 c -7 3 -15 -2 -18 -10 c -4 -8 -10 -15 -16 -15 c -5 0 -6 6 -2 13 c 4 7 3 9 -2 4 c -5 -5 -9 -14 -9 -20 c 0 -7 -9 -11 -18 -11 c -10 1 -16 -1 -13 -4 c 3 -3 -2 -15 -11 -26 c -18 -21 -18 -21 3 -3 c 28 23 30 22 29 -18 c 0 -19 -4 -35 -8 -35 c -5 0 -5 -5 -1 -11 c 3 -6 7 -112 9 -235 c 1 -169 -1 -224 -10 -220 c -13 5 -13 -29 0 -41 c 4 -5 5 -2 1 5 c -4 6 -3 12 3 12 c 5 0 10 -60 10 -147 c 2 -128 0 -145 -12 -129 c -11 15 -16 16 -22 6 c -5 -9 -4 -11 3 -6 c 7 4 12 1 12 -8 c 0 -9 -8 -16 -17 -16 c -15 0 -16 -2 -3 -10 c 16 -10 15 -11 -15 -15 c -19 -2 -20 5 -23 263 c -2 201 1 268 10 280 c 11 12 10 16 -1 20 c -11 4 -11 6 0 13 c 10 6 11 9 2 9 c -8 0 -13 13 -13 30 c 0 17 5 30 10 30 c 7 0 7 6 0 19 c -13 25 -13 211 0 211 c 6 0 10 5 10 11 c 0 5 -4 7 -10 4 c -15 -9 -12 24 4 40 c 8 9 17 10 25 4 c 8 -6 8 -6 1 3 c -16 19 -12 27 23 49 c 21 13 42 18 61 14 c 16 -3 72 -5 126 -5 z" stroke-linecap="round"/>
</g>
		<g transform="matrix(0.1333 0 0 -0.1333 -82.6671 -79.573)">
<path style="stroke: none; stroke-width: 1; stroke-dasharray: none; stroke-linecap: butt; stroke-dashoffset: 0; stroke-linejoin: miter; stroke-miterlimit: 4; is-custom-font: none; font-file-url: none; fill: rgb(29,28,28); fill-rule: nonzero; opacity: 1;" transform=" translate(-440, -1911.7952)" d="M 430 1909 c 0 -5 5 -7 10 -4 c 6 3 10 8 10 11 c 0 2 -4 4 -10 4 c -5 0 -10 -5 -10 -11 z" stroke-linecap="round"/>
</g>
		<g transform="matrix(0.1333 0 0 -0.1333 -88.4141 -76.9578)">
<path style="stroke: none; stroke-width: 1; stroke-dasharray: none; stroke-linecap: butt; stroke-dashoffset: 0; stroke-linejoin: miter; stroke-miterlimit: 4; is-custom-font: none; font-file-url: none; fill: rgb(29,28,28); fill-rule: nonzero; opacity: 1;" transform=" translate(-396.898, -1892.1809)" d="M 385 1890 c -3 -6 1 -7 9 -4 c 18 7 21 14 7 14 c -6 0 -13 -4 -16 -10 z" stroke-linecap="round"/>
</g>
		<g transform="matrix(0.1333 0 0 -0.1333 21.2266 1.3788)">
<path style="stroke: none; stroke-width: 1; stroke-dasharray: none; stroke-linecap: butt; stroke-dashoffset: 0; stroke-linejoin: miter; stroke-miterlimit: 4; is-custom-font: none; font-file-url: none; fill: rgb(29,28,28); fill-rule: nonzero; opacity: 1;" transform=" translate(-1219.3041, -1304.5)" d="M 800 1818 c 0 -101 3 -129 20 -162 c 35 -72 28 -71 375 -71 l 310 0 l -1 -65 c -1 -36 -2 -215 -3 -397 l -1 -333 l -64 0 c -86 0 -97 -5 -85 -37 c 5 -13 9 -38 9 -54 l 0 -29 l 95 0 c 91 0 95 1 130 31 c 19 17 40 47 45 67 c 7 25 10 224 8 594 l -3 556 l -125 -60 c -69 -33 -158 -75 -198 -94 l -72 -35 l -93 44 c -50 25 -132 64 -182 86 c -49 23 -107 50 -127 61 l -38 19 l 0 -121 z m 86 56 c 33 -14 91 -41 131 -60 c 40 -19 77 -34 83 -34 c 5 0 10 -4 10 -10 c 0 -5 7 -7 15 -4 c 8 4 17 -1 21 -10 c 3 -9 15 -16 25 -16 c 10 0 19 -4 19 -9 c 0 -5 7 -12 16 -15 c 10 -4 13 -2 7 7 c -4 6 6 4 21 -7 c 16 -10 26 -14 23 -9 c -4 5 9 17 27 26 c 26 12 36 13 46 4 c 10 -9 11 -9 6 0 c -9 17 67 55 98 49 c 17 -3 23 0 22 12 c -1 11 6 17 21 16 c 12 0 21 4 20 10 c -1 6 8 12 21 14 c 12 2 22 8 22 13 c 0 5 12 9 26 9 c 17 0 23 4 18 13 c -4 6 -4 9 1 5 c 4 -4 13 -4 19 2 c 8 6 12 1 14 -18 c 1 -21 0 -24 -8 -12 c -8 13 -10 13 -10 -2 c 0 -9 6 -19 13 -21 c 9 -4 8 -8 -3 -16 c -8 -6 -10 -11 -4 -11 c 8 0 12 -23 13 -62 c 0 -44 -2 -58 -9 -48 c -8 12 -10 9 -10 -12 c 0 -15 4 -29 8 -32 c 12 -7 14 -106 2 -106 c -5 0 -10 -5 -10 -11 c 0 -5 5 -7 10 -4 c 6 3 10 -1 10 -10 c 0 -9 -4 -13 -10 -10 c -5 3 -10 -3 -10 -15 c 0 -12 5 -18 10 -15 c 6 4 10 -6 9 -22 c 0 -25 -1 -26 -9 -8 c -8 19 -9 19 -9 -2 c -1 -13 4 -23 9 -23 c 15 0 13 -127 -2 -134 c -10 -5 -10 -7 0 -12 c 14 -7 17 -90 2 -99 c -5 -3 -9 -21 -9 -38 l 1 -32 l 8 30 c 6 25 8 21 9 -25 c 0 -39 -2 -51 -9 -40 c -7 10 -10 -7 -10 -58 c 0 -40 4 -71 9 -68 c 5 3 9 -26 10 -65 c 1 -60 -1 -70 -14 -65 c -19 7 -19 1 1 -18 c 14 -15 14 -16 -2 -16 c -14 0 -15 -2 -3 -17 c 12 -15 12 -16 -3 -10 c -13 4 -15 2 -11 -10 c 5 -12 2 -15 -9 -10 c -12 4 -14 1 -10 -15 c 5 -20 4 -20 -16 -2 c -20 16 -62 31 -47 16 c 4 -4 11 -8 16 -8 c 5 -1 12 -2 15 -3 c 4 0 0 -9 -7 -18 c -13 -16 -12 -17 4 -4 c 9 7 17 9 17 3 c 0 -12 -26 -23 -34 -15 c -3 3 -33 6 -66 5 c -64 0 -68 2 -72 48 c -3 24 0 25 47 26 c 80 3 82 3 91 22 c 4 9 8 194 9 411 c 1 371 0 394 -17 399 c -10 2 -16 7 -14 11 c 2 3 -11 7 -30 7 c -20 1 -31 -3 -27 -9 c 4 -6 1 -7 -8 -1 c -19 11 -51 16 -45 6 c 2 -4 -13 -8 -34 -8 c -21 1 -36 4 -33 9 c 2 4 0 7 -6 7 c -5 0 -13 -4 -16 -10 c -3 -5 -16 -10 -28 -10 c -18 0 -19 2 -7 10 c 12 7 10 9 -7 7 c -12 0 -19 -5 -17 -9 c 8 -12 -11 -9 -24 4 c -9 9 -12 9 -12 -2 c 0 -13 -2 -13 -10 0 c -6 10 -10 11 -10 3 c 0 -10 -25 -13 -91 -13 c -49 0 -88 3 -85 8 c 2 4 -11 8 -29 8 c -19 0 -32 -3 -29 -8 c 3 -4 -2 -8 -12 -8 c -21 0 -94 41 -94 52 c 0 5 4 7 8 4 c 5 -3 9 1 9 9 c 0 8 -4 12 -8 10 c -18 -12 -27 29 -27 123 c 0 56 1 102 2 102 c 2 0 30 -12 62 -26 z m 731 -901 c -3 -10 -5 -2 -5 17 c 0 19 2 27 5 18 c 2 -10 2 -26 0 -35 z" stroke-linecap="round"/>
</g>
		<g transform="matrix(0.1333 0 0 -0.1333 10.3604 -54.6671)">
<path style="stroke: none; stroke-width: 1; stroke-dasharray: none; stroke-linecap: butt; stroke-dashoffset: 0; stroke-linejoin: miter; stroke-miterlimit: 4; is-custom-font: none; font-file-url: none; fill: rgb(29,28,28); fill-rule: nonzero; opacity: 1;" transform=" translate(-1137.7048, -1725)" d="M 1130 1725 c 0 -8 2 -15 4 -15 c 2 0 6 7 10 15 c 3 8 1 15 -4 15 c -6 0 -10 -7 -10 -15 z" stroke-linecap="round"/>
</g>
		<g transform="matrix(0.1333 0 0 -0.1333 65.8022 -24.5706)">
<path style="stroke: none; stroke-width: 1; stroke-dasharray: none; stroke-linecap: butt; stroke-dashoffset: 0; stroke-linejoin: miter; stroke-miterlimit: 4; is-custom-font: none; font-file-url: none; fill: rgb(29,28,28); fill-rule: nonzero; opacity: 1;" transform=" translate(-1553.5193, -1499.2771)" d="M 1547 1499 c 7 -7 15 -10 18 -7 c 3 3 -2 9 -12 12 c -14 6 -15 5 -6 -5 z" stroke-linecap="round"/>
</g>
		<g transform="matrix(0.1333 0 0 -0.1333 64.3993 -20.9748)">
<path style="stroke: none; stroke-width: 1; stroke-dasharray: none; stroke-linecap: butt; stroke-dashoffset: 0; stroke-linejoin: miter; stroke-miterlimit: 4; is-custom-font: none; font-file-url: none; fill: rgb(29,28,28); fill-rule: nonzero; opacity: 1;" transform=" translate(-1542.998, -1472.3088)" d="M 1530 1476 c 0 -2 7 -7 16 -10 c 8 -3 12 -2 9 4 c -6 10 -25 14 -25 6 z" stroke-linecap="round"/>
</g>
		<g transform="matrix(0.1333 0 0 -0.1333 72.6999 -5.549)">
<path style="stroke: none; stroke-width: 1; stroke-dasharray: none; stroke-linecap: butt; stroke-dashoffset: 0; stroke-linejoin: miter; stroke-miterlimit: 4; is-custom-font: none; font-file-url: none; fill: rgb(29,28,28); fill-rule: nonzero; opacity: 1;" transform=" translate(-1605.25, -1356.6132)" d="M 1602 1355 c 0 -16 2 -22 5 -12 c 2 9 2 23 0 30 c -3 6 -5 -1 -5 -18 z" stroke-linecap="round"/>
</g>
		<g transform="matrix(0.1333 0 0 -0.1333 67.3076 3.8847)">
<path style="stroke: none; stroke-width: 1; stroke-dasharray: none; stroke-linecap: butt; stroke-dashoffset: 0; stroke-linejoin: miter; stroke-miterlimit: 4; is-custom-font: none; font-file-url: none; fill: rgb(29,28,28); fill-rule: nonzero; opacity: 1;" transform=" translate(-1564.8076, -1285.8618)" d="M 1561 1284 c 0 -11 3 -14 6 -6 c 3 7 2 16 -1 19 c -3 4 -6 -2 -5 -13 z" stroke-linecap="round"/>
</g>
		<g transform="matrix(0.1333 0 0 -0.1333 46.6371 76.5297)">
<path style="stroke: none; stroke-width: 1; stroke-dasharray: none; stroke-linecap: butt; stroke-dashoffset: 0; stroke-linejoin: miter; stroke-miterlimit: 4; is-custom-font: none; font-file-url: none; fill: rgb(29,28,28); fill-rule: nonzero; opacity: 1;" transform=" translate(-1409.7829, -741.0226)" d="M 1405 740 c -16 -17 -16 -20 -3 -15 c 9 4 19 13 22 21 c 7 19 2 18 -19 -6 z" stroke-linecap="round"/>
</g>
		<g transform="matrix(0.1333 0 0 -0.1333 -12.0245 -12.0018)">
<path style="stroke: none; stroke-width: 1; stroke-dasharray: none; stroke-linecap: butt; stroke-dashoffset: 0; stroke-linejoin: miter; stroke-miterlimit: 4; is-custom-font: none; font-file-url: none; fill: rgb(29,28,28); fill-rule: nonzero; opacity: 1;" transform=" translate(-969.9134, -1405)" d="M 603 1450 c -27 -11 -30 -45 -7 -78 l 15 -22 l 364 0 c 350 0 365 1 375 19 c 15 29 13 39 -15 66 l -24 25 l -343 -1 c -189 0 -353 -4 -365 -9 z m 717 -28 c 19 -22 17 -52 -2 -52 c -5 0 -6 5 -2 12 c 5 7 3 8 -7 3 c -19 -12 -99 -16 -249 -13 c -52 1 -122 1 -155 -1 c -33 -1 -73 0 -88 4 c -20 4 -26 2 -22 -6 c 6 -8 2 -8 -13 0 c -25 13 -35 14 -28 2 c 3 -4 -7 -7 -22 -5 c -15 2 -44 4 -65 6 c -23 1 -45 10 -57 24 l -21 21 l 33 16 c 29 14 76 16 356 14 l 324 -2 l 18 -23 z" stroke-linecap="round"/>
</g>
		<g transform="matrix(0.1333 0 0 -0.1333 -57.7474 -12.9578)">
<path style="stroke: none; stroke-width: 1; stroke-dasharray: none; stroke-linecap: butt; stroke-dashoffset: 0; stroke-linejoin: miter; stroke-miterlimit: 4; is-custom-font: none; font-file-url: none; fill: rgb(29,28,28); fill-rule: nonzero; opacity: 1;" transform=" translate(-626.898, -1412.1809)" d="M 615 1410 c -3 -6 1 -7 9 -4 c 18 7 21 14 7 14 c -6 0 -13 -4 -16 -10 z" stroke-linecap="round"/>
</g>
		<g transform="matrix(0.1333 0 0 -0.1333 8.0235 -13.3001)">
<path style="stroke: none; stroke-width: 1; stroke-dasharray: none; stroke-linecap: butt; stroke-dashoffset: 0; stroke-linejoin: miter; stroke-miterlimit: 4; is-custom-font: none; font-file-url: none; fill: rgb(29,28,28); fill-rule: nonzero; opacity: 1;" transform=" translate(-1120.1815, -1414.75)" d="M 1103 1413 c 9 -2 25 -2 35 0 c 9 3 1 5 -18 5 c -19 0 -27 -2 -17 -5 z" stroke-linecap="round"/>
</g>
		<g transform="matrix(0.1333 0 0 -0.1333 -52.5522 -12.0258)">
<path style="stroke: none; stroke-width: 1; stroke-dasharray: none; stroke-linecap: butt; stroke-dashoffset: 0; stroke-linejoin: miter; stroke-miterlimit: 4; is-custom-font: none; font-file-url: none; fill: rgb(29,28,28); fill-rule: nonzero; opacity: 1;" transform=" translate(-665.8618, -1405.1924)" d="M 658 1403 c 7 -3 16 -2 19 1 c 4 3 -2 6 -13 5 c -11 0 -14 -3 -6 -6 z" stroke-linecap="round"/>
</g>
		<g transform="matrix(0.1333 0 0 -0.1333 -12.0702 22.6649)">
<path style="stroke: none; stroke-width: 1; stroke-dasharray: none; stroke-linecap: butt; stroke-dashoffset: 0; stroke-linejoin: miter; stroke-miterlimit: 4; is-custom-font: none; font-file-url: none; fill: rgb(29,28,28); fill-rule: nonzero; opacity: 1;" transform=" translate(-969.5715, -1145)" d="M 602 1184 c -12 -8 -22 -23 -22 -33 c 0 -20 35 -61 53 -61 c 7 0 165 0 352 0 c 333 0 340 0 358 21 c 22 27 22 44 -3 69 c -19 19 -33 20 -368 20 c -298 0 -351 -2 -370 -16 z m 256 -13 c 7 0 10 -5 7 -11 c -3 -5 -1 -10 4 -10 c 6 0 11 6 11 14 c 0 12 33 14 193 14 c 130 0 197 -4 206 -11 c 12 -9 13 -9 7 1 c -9 15 -5 15 29 2 c 17 -7 24 -14 18 -22 c -4 -7 -8 -16 -8 -20 c 0 -13 -15 -21 -15 -7 c 0 11 -2 12 -9 1 c -7 -11 -67 -14 -311 -13 c -167 1 -307 4 -312 7 c -4 3 -8 0 -8 -5 c 0 -6 -5 -11 -11 -11 c -5 0 -7 5 -3 12 c 5 7 2 9 -8 5 c -19 -7 -50 24 -40 40 c 4 6 16 12 27 14 c 17 4 188 4 223 0 z" stroke-linecap="round"/>
</g>
		<g transform="matrix(0.1333 0 0 -0.1333 -20.4671 21.1613)">
<path style="stroke: none; stroke-width: 1; stroke-dasharray: none; stroke-linecap: butt; stroke-dashoffset: 0; stroke-linejoin: miter; stroke-miterlimit: 4; is-custom-font: none; font-file-url: none; fill: rgb(29,28,28); fill-rule: nonzero; opacity: 1;" transform=" translate(-906.5, -1156.2877)" d="M 893 1153 c 0 -9 4 -10 14 -2 c 7 6 13 12 13 14 c 0 1 -6 2 -13 2 c -8 0 -14 -6 -14 -14 z" stroke-linecap="round"/>
</g>
		<g transform="matrix(0.1333 0 0 -0.1333 -33.0156 105.5486)">
<path style="stroke: none; stroke-width: 1; stroke-dasharray: none; stroke-linecap: butt; stroke-dashoffset: 0; stroke-linejoin: miter; stroke-miterlimit: 4; is-custom-font: none; font-file-url: none; fill: rgb(29,28,28); fill-rule: nonzero; opacity: 1;" transform=" translate(-812.5, -523.2798)" d="M 615 940 c -60 -10 -78 -16 -136 -53 c -45 -30 -95 -95 -120 -157 c -20 -51 -20 -589 0 -613 c 26 -32 60 -20 150 55 c 47 40 88 75 91 78 c 3 3 20 17 39 30 c 32 22 48 25 195 31 c 89 4 177 12 196 18 c 88 27 158 77 204 147 c 36 55 47 96 47 178 c 0 112 -54 202 -158 263 l -48 28 l -205 1 c -113 1 -227 -2 -255 -6 z m 407 -23 c 5 -8 8 -8 8 -1 c 0 7 11 9 28 6 c 32 -6 54 -21 46 -33 c -3 -5 2 -6 10 -3 c 19 7 21 -7 4 -24 c -7 -7 -9 -12 -6 -12 c 4 0 14 7 23 16 c 12 13 19 14 30 4 c 8 -7 15 -19 15 -26 c 0 -8 5 -14 11 -14 c 6 0 9 -7 6 -14 c -4 -11 -1 -13 10 -9 c 10 4 14 2 9 -5 c -3 -6 -2 -13 4 -17 c 5 -3 15 -15 21 -27 c 9 -16 8 -19 -2 -13 c -7 5 -5 -2 4 -16 c 22 -31 24 -151 3 -169 c -8 -6 -12 -18 -10 -25 c 3 -8 -3 -22 -15 -31 c -11 -10 -18 -21 -15 -25 c 2 -4 -10 -19 -27 -33 c -17 -14 -27 -26 -22 -26 c 4 0 0 -5 -10 -11 c -9 -5 -22 -7 -29 -3 c -7 4 -8 3 -4 -4 c 4 -7 1 -12 -7 -12 c -8 0 -18 -7 -21 -16 c -4 -10 -13 -13 -26 -9 c -11 3 -20 2 -20 -3 c 0 -9 -130 -20 -297 -25 c -47 -1 -74 -6 -78 -14 c -2 -7 -14 -13 -25 -13 c -11 0 -20 -4 -20 -8 c 0 -4 -14 -16 -30 -26 c -17 -9 -28 -22 -25 -27 c 6 -8 -7 -12 -21 -6 c -3 1 -13 -11 -22 -28 c -8 -16 -17 -25 -19 -18 c -3 7 -16 -1 -33 -20 c -25 -28 -31 -31 -49 -20 c -31 19 -36 16 -10 -5 l 22 -19 l -22 -6 c -28 -7 -38 17 -37 90 c 1 29 -2 53 -6 53 c -12 0 -9 59 3 82 c 8 15 8 19 0 14 c -7 -5 -11 11 -12 51 c 0 32 -1 86 -2 121 c -1 34 2 62 6 62 c 5 0 6 14 2 30 c -4 18 -3 30 4 30 c 5 0 8 8 6 19 c -2 10 3 31 10 45 c 8 15 9 24 3 20 c -6 -4 7 16 28 43 c 22 28 43 48 47 46 c 5 -3 7 3 5 13 c -2 12 3 19 13 19 c 9 0 23 5 30 11 c 8 7 24 15 37 18 c 12 4 20 11 18 14 c -8 13 124 14 140 1 c 12 -9 13 -9 9 2 c -4 12 21 15 147 16 c 108 1 155 -2 160 -10 z" stroke-linecap="round"/>
</g>
		<g transform="matrix(0.1333 0 0 -0.1333 -70.6461 63.7027)">
<path style="stroke: none; stroke-width: 1; stroke-dasharray: none; stroke-linecap: butt; stroke-dashoffset: 0; stroke-linejoin: miter; stroke-miterlimit: 4; is-custom-font: none; font-file-url: none; fill: rgb(29,28,28); fill-rule: nonzero; opacity: 1;" transform=" translate(-530.1563, -837.227)" d="M 525 841 c -3 -5 -2 -12 3 -15 c 5 -3 9 1 9 9 c 0 17 -3 19 -12 6 z" stroke-linecap="round"/>
</g>
		<g transform="matrix(0.1333 0 0 -0.1333 17.5498 72.6662)">
<path style="stroke: none; stroke-width: 1; stroke-dasharray: none; stroke-linecap: butt; stroke-dashoffset: 0; stroke-linejoin: miter; stroke-miterlimit: 4; is-custom-font: none; font-file-url: none; fill: rgb(29,28,28); fill-rule: nonzero; opacity: 1;" transform=" translate(-1191.625, -770)" d="M 1184 770 c 0 -13 4 -16 10 -10 c 7 7 7 13 0 20 c -6 6 -10 3 -10 -10 z" stroke-linecap="round"/>
</g>
</g>
</g>
</svg>