<?xml version="1.0" standalone="no"?>
<!DOCTYPE svg PUBLIC "-//W3C//DTD SVG 20010904//EN"
 "http://www.w3.org/TR/2001/REC-SVG-20010904/DTD/svg10.dtd">
<svg version="1.0" xmlns="http://www.w3.org/2000/svg"
 width="212.000000pt" height="263.000000pt" viewBox="0 0 212.000000 263.000000"
 preserveAspectRatio="xMidYMid meet">
<metadata>
Created by potrace 1.16, written by Peter Selinger 2001-2019
</metadata>
<g transform="translate(0.000000,263.000000) scale(0.100000,-0.100000)"
fill="#000000" stroke="none">
<path d="M1165 2482 c-61 -29 -123 -56 -205 -92 -41 -18 -103 -45 -138 -61
-35 -16 -65 -29 -67 -29 -4 0 -147 -65 -182 -82 -33 -16 -38 -44 -14 -77 11
-15 17 -32 13 -36 -4 -5 -2 -5 5 -1 13 7 39 -2 186 -69 43 -19 80 -35 82 -35
13 0 121 -54 127 -64 4 -6 8 -8 8 -4 0 7 78 -27 110 -47 8 -5 20 -10 25 -11 6
-1 32 -11 57 -23 26 -11 58 -21 72 -21 14 0 76 26 138 58 98 50 212 104 228
107 3 1 30 13 60 28 30 15 60 25 67 23 22 -9 17 -162 -5 -194 -10 -15 -19 -45
-21 -68 -2 -36 2 -45 34 -72 58 -51 117 -38 151 33 13 28 14 40 4 69 -6 20
-22 44 -34 54 -20 15 -24 30 -30 124 l-7 106 38 18 c21 11 39 27 41 37 9 44
-36 75 -221 153 -86 37 -180 80 -295 136 -119 58 -169 67 -227 40z"/>
<path d="M394 1940 c-12 -4 -35 -25 -53 -46 l-31 -39 0 -519 0 -519 31 46 c17
26 44 56 60 68 l29 20 2 437 3 437 135 5 135 5 -1 48 c0 31 -6 52 -15 58 -18
11 -267 11 -295 -1z"/>
<path d="M800 1813 c1 -140 10 -172 62 -213 27 -21 34 -21 328 -17 209 3 303
0 309 -7 5 -6 7 -36 6 -66 -2 -30 -4 -204 -4 -387 l-1 -332 -77 -3 c-72 -3
-78 -5 -75 -23 2 -11 6 -37 9 -57 l5 -38 96 0 c85 0 98 3 127 24 18 14 36 40
43 64 9 28 12 197 12 601 l0 561 -52 -24 c-29 -13 -107 -49 -173 -81 -66 -31
-133 -63 -149 -70 -27 -12 -35 -11 -75 9 -67 34 -228 110 -286 136 -27 12 -62
29 -77 36 l-28 15 0 -128z"/>
<path d="M604 1450 c-29 -11 -35 -32 -19 -63 7 -14 10 -29 7 -33 -4 -4 -1 -4
6 0 6 4 12 3 12 -1 0 -5 159 -10 353 -11 333 -3 355 -2 376 15 19 16 22 25 16
52 -4 21 -15 35 -32 42 -30 11 -690 11 -719 -1z"/>
<path d="M597 1182 c-28 -31 -16 -66 30 -91 25 -13 640 -15 690 -2 38 10 52
50 29 85 l-16 26 -359 0 c-334 0 -359 -1 -374 -18z"/>
</g>
</svg>
